<?xml version="1.0" standalone="no"?>
<!DOCTYPE svg PUBLIC "-//W3C//DTD SVG 20010904//EN"
 "http://www.w3.org/TR/2001/REC-SVG-20010904/DTD/svg10.dtd">
<svg version="1.0" xmlns="http://www.w3.org/2000/svg"
 width="300.000000pt" height="428.000000pt" viewBox="0 0 300.000000 428.000000"
 preserveAspectRatio="xMidYMid meet">
<metadata>
Created by potrace 1.10, written by Peter Selinger 2001-2011
</metadata>
<g transform="translate(0.000000,428.000000) scale(0.100000,-0.100000)"
fill="#000000" stroke="none">
<path d="M58 4243 c-17 -11 -30 -29 -33 -48 -3 -16 -4 -954 -3 -2083 l3 -2052
29 -25 29 -25 1423 0 1423 0 28 24 28 24 0 2075 0 2075 -24 26 -24 25 -1426 0
c-1329 1 -1428 -1 -1453 -16z m2887 -2108 l0 -2085 -1442 0 -1443 0 0 2085 0
2085 1443 0 1442 0 0 -2085z"/>
<path d="M1309 3603 c-39 -54 -92 -139 -117 -190 l-44 -92 12 -65 c13 -71 24
-82 138 -140 36 -18 50 -30 46 -41 -8 -20 -11 -19 -61 10 -48 27 -53 20 -28
-39 18 -41 17 -42 -29 -19 -31 14 -37 25 -56 87 -12 39 -24 78 -27 86 -3 8
-14 -23 -23 -70 -9 -47 -28 -123 -43 -170 -14 -47 -31 -121 -37 -165 l-12 -80
40 -92 41 -93 -32 -1 c-18 -1 -35 -1 -39 0 -5 0 -8 -5 -8 -12 0 -6 27 -31 58
-54 53 -38 61 -48 89 -123 23 -59 27 -78 15 -67 -73 62 -204 167 -208 167 -4
0 -3 -8 1 -17 3 -10 12 -52 20 -93 8 -41 28 -138 44 -215 30 -134 33 -141 69
-172 20 -17 44 -31 52 -31 25 1 270 -153 270 -170 0 -4 -4 -13 -9 -20 -6 -10
-30 5 -95 58 -53 44 -91 68 -98 64 -7 -4 -10 -3 -5 1 4 5 0 17 -10 27 -20 23
-40 24 -22 1 14 -17 -88 52 -164 110 -22 17 -42 26 -47 21 -8 -8 -87 -254 -96
-299 -3 -15 16 -35 80 -84 47 -36 96 -72 110 -80 38 -23 32 -31 -26 -32 -105
-1 -102 -10 28 -80 65 -35 145 -78 176 -94 31 -16 56 -31 54 -32 -1 -1 -74 23
-161 53 -243 84 -254 88 -259 83 -16 -15 72 -230 149 -368 37 -65 55 -86 103
-117 31 -20 101 -67 155 -103 l98 -65 -3 -138 c-2 -76 0 -138 3 -138 4 0 35
74 69 164 l62 165 47 11 c38 9 67 30 161 116 97 89 119 115 142 167 15 34 28
68 28 75 0 8 -51 -14 -127 -54 -112 -58 -136 -67 -193 -70 l-65 -4 117 60 117
59 86 129 c63 95 93 149 111 207 13 43 23 80 20 82 -2 3 -39 -19 -82 -48 -74
-50 -171 -95 -181 -85 -3 2 3 16 13 31 l18 28 -24 -8 c-14 -4 -58 -23 -99 -41
-52 -24 -81 -32 -99 -27 -24 6 -22 8 23 23 77 25 265 104 265 112 0 3 -35 10
-77 13 l-76 8 94 35 c52 19 117 39 145 45 51 11 53 13 116 106 l65 96 -45 177
c-24 98 -48 176 -52 173 -4 -3 -43 -52 -86 -110 -75 -100 -95 -117 -109 -95
-7 11 45 115 115 230 50 82 51 87 45 140 -7 65 -49 311 -66 390 l-12 55 -86
-93 c-82 -88 -88 -92 -128 -92 l-43 0 89 80 c50 44 92 88 95 98 2 9 12 63 22
119 l17 102 -58 116 c-32 63 -61 115 -65 115 -8 0 -37 -129 -76 -330 -15 -80
-29 -147 -31 -149 -2 -3 -19 14 -38 37 -22 25 -41 39 -50 35 -15 -5 -22 13 -7
19 5 2 32 33 60 70 l53 67 23 153 c14 84 26 165 28 180 2 22 -14 48 -85 133
-55 66 -109 119 -142 141 -30 19 -56 34 -59 34 -2 0 -37 -44 -77 -97z m161 22
c0 -5 -11 -37 -24 -70 -13 -33 -28 -69 -31 -80 -10 -29 -13 -13 -18 102 l-4
102 38 -22 c22 -12 39 -26 39 -32z m-85 -99 c6 -150 1 -196 -25 -196 -16 0
-17 5 -7 43 5 23 14 47 19 54 7 9 -8 21 -51 43 -34 16 -61 32 -61 35 0 7 113
156 116 152 2 -1 6 -61 9 -131z m155 -210 c-6 -6 -31 10 -62 39 -29 27 -57 52
-62 56 -4 4 3 36 17 71 14 34 31 77 37 93 12 28 14 22 45 -110 20 -82 30 -144
25 -149z m39 194 c73 -90 73 -91 55 -111 -11 -12 -31 -30 -45 -40 l-26 -18
-27 107 c-14 59 -29 117 -32 130 -4 12 -4 22 -2 22 2 0 37 -41 77 -90z m-231
-75 c9 -7 -19 -89 -35 -100 -16 -13 -143 -22 -143 -10 0 4 31 75 37 84 1 2 23
-13 48 -34 25 -20 48 -35 51 -32 3 3 -15 22 -40 43 -25 21 -46 42 -46 46 0 5
7 20 16 33 l16 25 47 -27 c25 -15 47 -27 49 -28z m81 -67 c5 8 22 -4 50 -31
35 -37 40 -46 28 -56 -12 -9 -20 -3 -42 34 -15 26 -29 44 -32 41 -3 -3 15 -42
41 -87 25 -45 46 -85 46 -89 0 -18 -47 -112 -52 -104 -10 18 -27 101 -38 184
-6 47 -13 94 -14 105 -2 11 -1 14 1 6 4 -10 7 -11 12 -3z m220 -20 c-4 -24
-11 -65 -14 -92 l-7 -48 -24 23 c-13 13 -28 37 -32 53 -8 28 -4 35 32 68 23
20 44 37 47 38 4 0 3 -19 -2 -42z m-236 -80 c4 -46 14 -108 22 -138 26 -91 27
-94 12 -114 -13 -18 -15 -18 -55 8 -38 24 -40 27 -32 56 5 17 15 85 21 151 7
65 16 119 19 119 4 0 10 -37 13 -82z m-43 28 c0 -12 -5 -58 -11 -102 l-12 -81
-37 14 -37 15 27 71 c15 40 30 79 33 88 8 23 37 19 37 -5z m-55 -3 c-9 -21
-44 -112 -50 -131 -9 -27 -70 34 -87 87 l-16 50 27 4 c14 2 50 5 80 6 47 1 52
-1 46 -16z m263 -56 c34 -34 42 -50 41 -77 -1 -72 -12 -76 -51 -18 -66 99 -75
118 -58 128 22 14 22 14 68 -33z m204 -202 c-20 -22 -38 -41 -41 -42 -3 -2 -7
25 -8 60 -2 34 -5 96 -8 137 l-5 75 49 -95 49 -95 -36 -40z m-109 -131 c-26
-35 -48 -63 -49 -61 -1 1 11 61 26 132 15 72 34 164 41 205 l13 75 8 -144 8
-143 -47 -64z m-105 212 c18 -24 32 -47 32 -49 0 -4 -101 -74 -157 -110 -7 -4
4 25 25 65 21 40 44 88 50 106 6 17 13 32 15 32 2 0 18 -20 35 -44z m-403 -54
c-2 -3 -11 -2 -20 1 -9 4 -15 19 -15 40 0 51 12 53 27 5 6 -23 10 -44 8 -46z
m233 -59 c25 -13 31 -21 26 -37 -4 -12 -8 -22 -9 -24 -2 -2 -31 11 -65 28 -47
24 -65 39 -76 65 -8 19 -14 37 -14 40 0 3 24 -8 53 -25 28 -17 67 -39 85 -47z
m-173 10 c41 -21 75 -40 75 -43 0 -4 -13 -18 -28 -33 l-28 -27 -38 54 c-36 53
-81 101 -61 66 4 -8 26 -41 48 -73 l41 -58 -27 -26 -26 -26 -6 29 c-4 16 -15
58 -26 93 -16 57 -17 81 -4 81 3 0 38 -17 80 -37z m566 -77 l-19 -88 -78 -72
c-43 -39 -103 -94 -134 -123 -30 -28 -56 -50 -58 -48 -2 2 25 50 59 107 64
105 241 337 246 321 2 -4 -6 -48 -16 -97z m-661 68 c0 -9 9 -55 20 -102 12
-48 27 -113 34 -145 13 -53 13 -57 -3 -53 -13 4 -129 26 -137 26 -3 0 26 136
47 217 12 45 26 80 30 77 5 -3 9 -12 9 -20z m393 -45 l-56 -70 -21 22 c-13 13
-17 23 -10 26 7 2 40 24 75 48 35 25 65 45 66 45 2 0 -23 -32 -54 -71z m-153
-19 l40 -20 0 -148 c0 -95 -4 -142 -10 -132 -5 8 -40 69 -79 135 l-69 120 31
33 c17 17 35 32 39 32 5 0 27 -9 48 -20z m86 -210 c-8 -195 -7 -305 3 -369 6
-36 4 -56 -4 -68 -11 -15 -13 -14 -20 8 -11 33 -13 269 -2 269 4 0 6 4 3 8 -3
5 -7 81 -10 170 -4 160 -4 161 16 149 19 -12 20 -18 14 -167z m105 117 l36
-42 -64 -110 -65 -110 6 145 c6 140 11 160 41 160 6 -1 26 -20 46 -43z m-301
3 c11 -26 9 -34 -18 -81 -16 -28 -32 -47 -34 -43 -3 5 -9 31 -12 58 -7 42 -5
51 15 72 29 31 34 30 49 -6z m625 -170 c14 -79 24 -144 23 -145 -2 -1 -20 -5
-40 -8 -34 -5 -39 -2 -74 40 l-37 45 36 74 c21 41 37 85 37 97 0 21 19 51 27
43 2 -1 15 -67 28 -146z m-530 6 l56 -89 -3 -83 -3 -83 -96 132 c-96 131 -96
132 -79 157 9 14 25 38 35 55 15 23 20 26 27 15 4 -8 33 -55 63 -104z m430 19
c-38 -75 -39 -76 -58 -56 -20 19 -19 20 34 79 30 33 56 59 58 56 2 -2 -13 -38
-34 -79z m-628 -12 c46 -6 49 -11 68 -113 3 -19 20 -77 37 -128 16 -51 28 -95
27 -97 -2 -1 -32 14 -66 34 -55 31 -64 42 -77 81 -7 25 -26 74 -41 110 -15 36
-34 80 -42 99 l-14 34 33 -7 c18 -4 52 -9 75 -13z m476 -106 c-26 -40 -48 -74
-50 -77 -3 -3 -1 24 3 60 6 59 11 95 13 95 1 0 19 -1 40 -3 l39 -4 -45 -71z
m83 -15 c-19 -37 -31 -48 -71 -63 -27 -10 -50 -17 -51 -16 -2 1 21 39 49 83
l52 82 22 -21 22 -20 -23 -45z m-141 26 c-13 -118 -12 -115 -60 -131 l-44 -15
-3 46 c-3 45 -1 49 52 99 30 29 56 52 58 53 1 0 0 -24 -3 -52z m-251 -83 c62
-86 86 -128 86 -150 0 -17 4 -45 9 -63 5 -17 6 -32 3 -32 -4 0 -30 15 -57 34
-46 30 -52 40 -74 107 -25 77 -61 207 -61 223 0 13 -3 16 94 -119z m476 5 c-6
-7 -72 -30 -87 -30 -19 0 -16 17 13 66 l26 45 26 -38 c15 -21 24 -40 22 -43z
m-676 -32 c7 -18 12 -35 10 -36 -1 -2 -19 9 -38 24 -30 25 -33 30 -18 36 28
11 31 9 46 -24z m796 10 c0 -13 3 -41 7 -63 l6 -40 -45 55 -45 55 31 6 c17 4
34 7 39 8 4 0 7 -9 7 -21z m8 -136 c-2 -4 -25 -44 -52 -89 -35 -56 -61 -88
-86 -102 l-37 -20 -19 142 c-10 78 -19 150 -19 161 0 14 14 23 55 35 l55 17
53 -68 c30 -38 52 -72 50 -76z m-240 124 c-3 -12 -172 -146 -185 -146 -2 0 5
16 17 35 12 19 28 48 36 64 11 23 27 35 62 45 60 19 74 19 70 2z m-171 -86
c-17 -33 -35 -60 -39 -60 -5 0 -8 22 -8 49 0 46 2 49 33 59 17 5 35 10 39 11
4 1 -7 -26 -25 -59z m196 -77 c10 -76 21 -148 24 -160 7 -29 -39 -54 -65 -35
-9 6 -33 21 -52 32 -19 10 -41 23 -48 28 -9 6 -2 31 32 103 24 52 51 111 59
132 9 20 20 37 24 37 5 0 17 -62 26 -137z m-87 55 c-13 -24 -36 -73 -51 -110
l-29 -66 -52 26 -53 26 18 22 c18 23 170 142 183 143 4 1 -4 -18 -16 -41z
m-516 -58 c100 -83 112 -98 157 -203 32 -76 38 -97 25 -92 -9 4 -35 12 -57 17
-34 9 -45 18 -67 59 l-27 48 36 30 c20 17 34 34 30 38 -4 3 -22 -7 -40 -25
l-32 -31 -62 120 c-34 67 -54 115 -45 107 9 -8 46 -38 82 -68z m185 9 c63 -39
115 -72 115 -73 0 -1 -19 -3 -42 -4 -24 -1 -64 -5 -89 -8 l-47 -6 -17 49 c-10
26 -24 63 -31 81 -7 17 -11 32 -9 32 2 0 56 -32 120 -71z m-224 -75 l51 -106
-25 -25 -25 -25 -26 118 c-15 66 -29 125 -31 132 -12 37 10 0 56 -94z m355
-31 c-3 -10 -6 -37 -8 -61 -1 -24 -5 -45 -10 -48 -4 -3 -37 18 -73 47 -36 28
-68 49 -71 47 -5 -6 36 -43 125 -111 35 -27 59 -52 55 -57 -5 -4 -34 -10 -65
-13 l-56 -5 -33 80 c-48 116 -48 122 14 129 106 12 128 11 122 -8z m162 -68
c10 -9 1 -35 -43 -129 -31 -64 -55 -122 -53 -128 2 -6 17 19 33 54 26 56 38
70 88 101 61 39 64 36 39 -35 -14 -40 -28 -55 -89 -98 -85 -59 -79 -66 -86 98
-5 98 -4 102 16 106 12 3 40 10 62 15 36 10 33 10 -26 6 l-67 -5 -6 36 c-4 19
-10 42 -13 50 -5 15 117 -45 145 -71z m367 -3 c-8 -35 -15 -66 -18 -68 -2 -3
-10 8 -16 25 -11 26 -10 33 16 69 15 22 29 39 29 38 1 0 -4 -30 -11 -64z m53
-67 c-1 -2 -15 -6 -29 -10 l-26 -6 16 73 16 73 13 -63 c8 -35 12 -65 10 -67z
m-553 15 c7 -40 6 -43 -9 -31 -11 9 -16 29 -15 65 0 57 11 42 24 -34z m342 26
c-23 -47 -37 -51 -37 -11 0 20 31 49 57 55 1 0 -8 -20 -20 -44z m-148 -2 l23
-17 -46 -28 c-25 -16 -48 -29 -51 -29 -7 0 38 89 45 90 3 0 16 -7 29 -16z
m-496 -25 c10 -18 16 -33 14 -35 -1 -2 -22 2 -45 8 l-43 11 22 23 c12 13 25
24 28 24 3 0 14 -14 24 -31z m600 -6 c3 -15 3 -32 1 -37 -5 -12 -86 -67 -91
-62 -2 1 2 18 8 37 6 19 13 40 15 48 3 11 9 10 30 -4 14 -9 28 -14 31 -12 2 3
-7 13 -22 23 -20 13 -23 19 -13 25 23 15 36 10 41 -18z m176 -36 c-2 -2 -23
-15 -46 -30 l-43 -27 0 26 c0 14 12 41 27 60 l26 35 20 -31 c11 -17 18 -32 16
-33z m-738 -29 c5 -7 9 -15 9 -19 0 -5 -102 -29 -107 -25 -1 1 -5 20 -9 43
l-6 42 52 -14 c29 -8 57 -20 61 -27z m842 -18 c10 -33 17 -62 17 -66 0 -3 -20
19 -45 49 -25 31 -45 58 -45 61 0 2 10 7 23 9 12 2 25 5 28 6 3 0 13 -26 22
-59z m-72 -156 l-96 -52 -11 92 c-6 50 -8 92 -5 94 3 1 26 15 50 31 l43 29 58
-71 58 -72 -97 -51z m-161 169 c0 -2 -23 -38 -51 -79 -28 -42 -48 -78 -46 -81
3 -3 21 18 39 46 18 28 45 55 59 60 l27 9 7 -80 c3 -44 9 -86 11 -92 7 -18
-212 -176 -280 -203 -33 -13 -64 -23 -68 -23 -5 0 25 39 65 88 88 104 140 179
133 191 -3 5 12 47 34 95 30 64 43 84 55 80 8 -4 15 -8 15 -11z m-545 -3 c17
-7 15 -9 -12 -9 -18 -1 -33 4 -33 9 0 12 17 12 45 0z m465 -55 c-16 -33 -42
-90 -59 -127 -22 -50 -38 -71 -62 -83 -31 -16 -32 -16 -24 1 5 11 23 61 41
113 18 52 39 98 46 102 7 4 29 19 48 32 19 14 36 24 37 23 1 -1 -11 -28 -27
-61z m98 24 c-24 -16 -29 -9 -11 18 15 23 18 24 21 9 2 -10 -2 -22 -10 -27z
m-353 -48 l1 -79 -67 72 -67 71 42 6 c97 14 91 19 91 -70z m-11 -131 c-3 -19
-7 -37 -10 -39 -2 -2 -32 15 -66 39 -47 31 -73 58 -100 104 -21 33 -38 66 -38
71 0 6 14 13 32 16 31 6 38 1 111 -75 73 -77 77 -83 71 -116z m-234 171 c0 -5
15 -32 34 -60 31 -46 36 -67 11 -42 -6 5 -43 27 -84 50 -72 38 -74 40 -45 46
16 4 34 8 39 10 21 7 45 5 45 -4z m-161 -121 c46 -91 49 -100 56 -201 4 -59 3
-109 -2 -112 -7 -4 -155 104 -197 143 -8 8 23 130 34 130 3 0 28 -44 57 -98
62 -115 102 -181 103 -167 0 6 -34 73 -75 150 -41 77 -75 144 -75 149 0 5 7
36 17 69 18 67 14 70 82 -63z m41 61 c36 -24 69 -48 74 -52 4 -4 -4 -24 -19
-43 -15 -20 -25 -39 -22 -42 3 -3 16 10 29 30 13 20 27 36 31 36 9 0 198 -132
195 -136 -4 -3 -231 47 -248 55 -8 5 -41 54 -72 110 -31 56 -51 98 -45 94 7
-4 41 -27 77 -52z m488 -83 c-21 -62 -40 -113 -41 -114 -1 0 -17 -11 -34 -23
l-33 -22 1 83 0 83 72 52 c40 29 73 52 73 53 1 0 -16 -51 -38 -112z m445 30
c-53 -87 -97 -137 -124 -143 -35 -8 -35 -8 -44 26 -6 25 -1 30 82 77 100 58
97 56 86 40z m-565 -163 c-2 -17 -7 -22 -16 -16 -11 7 -11 16 -1 52 12 40 13
41 17 17 2 -16 2 -39 0 -53z m382 36 c0 -26 -6 -31 -77 -60 -100 -41 -112 -45
-90 -29 10 7 51 36 90 65 40 29 73 52 75 53 1 0 2 -13 2 -29z m-572 -21 c160
-33 147 -26 126 -58 -10 -15 -39 -64 -65 -110 -26 -46 -50 -79 -53 -74 -3 5
-22 41 -43 78 -20 38 -54 98 -75 133 l-38 63 26 -6 c14 -4 69 -16 122 -26z
m305 -4 c-68 -87 -126 -156 -129 -154 -2 2 4 26 12 53 12 44 22 55 72 87 31
21 59 38 60 38 2 0 -5 -11 -15 -24z m-331 -211 c21 -35 27 -54 21 -64 -16 -25
-26 -22 -80 27 l-51 47 -7 105 -6 105 47 -85 c25 -47 60 -107 76 -135z m198
166 c0 -5 -7 -11 -15 -15 -15 -5 -20 5 -8 17 9 10 23 9 23 -2z m10 -24 c0 -10
-32 -115 -41 -132 -5 -11 -13 -67 -17 -125 -6 -73 -11 -99 -17 -85 -5 11 -26
48 -46 82 l-38 62 49 87 c26 48 59 93 72 100 22 13 38 17 38 11z m252 -47 c60
0 58 -5 -19 -37 -83 -35 -94 -38 -88 -22 23 65 26 71 41 65 9 -3 39 -6 66 -6z
m-119 -44 c-8 -34 -13 -39 -63 -56 -30 -11 -56 -19 -57 -20 -2 0 -3 17 -3 38
0 37 1 37 63 58 34 12 63 20 65 19 1 -1 -1 -19 -5 -39z m346 -22 c-6 -27 -17
-55 -23 -62 -7 -6 -63 -43 -126 -81 -112 -68 -116 -69 -134 -51 -13 13 -17 26
-12 43 10 43 39 67 106 91 57 19 69 21 95 10 31 -13 73 -19 62 -8 -3 3 -22 11
-41 18 l-36 12 58 40 c31 23 58 40 60 39 2 -2 -2 -24 -9 -51z m-504 -195 l-25
-44 4 40 c3 22 8 69 11 105 4 35 12 73 18 85 10 17 12 7 15 -61 2 -71 0 -86
-23 -125z m251 136 c-33 -43 -65 -60 -136 -73 -67 -12 -80 -8 -80 29 0 29 12
35 45 23 14 -6 13 -9 -6 -30 -12 -13 -18 -24 -12 -24 5 0 18 10 29 21 18 20
175 100 183 93 2 -2 -8 -19 -23 -39z m-445 -72 c60 -53 109 -98 109 -100 0 -1
-21 10 -47 26 -27 15 -102 56 -168 92 -112 60 -118 64 -90 70 75 16 81 13 196
-88z m652 24 c-4 -7 -30 -45 -57 -85 -46 -68 -51 -72 -86 -72 -23 0 -43 7 -54
18 -15 18 -11 22 91 85 120 74 117 72 106 54z m-560 -57 c20 -33 37 -61 37
-63 0 -2 -25 19 -55 46 -43 39 -52 53 -44 64 6 7 14 13 18 13 3 0 23 -27 44
-60z m-325 -9 c4 -39 -5 -36 -48 19 l-31 39 38 -13 c32 -11 38 -18 41 -45z
m-37 -42 c-23 -9 -27 -5 -45 49 l-16 47 39 -45 c32 -37 36 -46 22 -51z m623
65 c8 -3 33 -30 56 -60 l41 -54 -66 0 c-36 0 -65 1 -65 3 0 2 7 25 16 51 22
64 11 70 -13 6 -11 -28 -22 -51 -26 -51 -4 1 -21 1 -38 1 -30 0 -30 1 -27 47
3 45 4 47 38 51 19 2 37 6 39 8 6 6 27 5 45 -2z m-519 -18 l40 -14 0 -76 c0
-42 -2 -76 -5 -75 -10 1 -90 120 -90 133 0 13 10 46 14 46 0 0 19 -7 41 -14z
m399 -256 c6 -11 6 -12 -2 -5 -6 6 -22 44 -36 85 l-26 75 23 43 22 42 5 -112
c3 -62 9 -120 14 -128z m-194 190 c113 -32 120 -41 120 -147 0 -73 -3 -80 -28
-64 -11 7 -10 18 3 65 9 31 15 62 12 69 -2 6 -14 -21 -27 -61 -21 -70 -24 -73
-49 -68 -14 3 -47 8 -73 12 -33 4 -54 14 -74 35 -15 16 -26 30 -23 32 2 2 58
21 124 42 66 22 113 41 104 42 -9 2 -65 -12 -125 -31 -59 -19 -110 -34 -112
-32 -2 2 0 36 4 75 6 67 8 71 28 64 11 -3 64 -19 116 -33z m-237 -34 c38 -49
34 -53 -15 -15 -64 48 -64 49 -37 49 15 0 34 -12 52 -34z m0 -41 c31 -22 56
-43 57 -46 0 -7 -71 -41 -76 -36 -2 1 -16 30 -31 62 -15 33 -29 64 -31 69 -5
10 8 2 81 -49z m476 35 c17 0 16 -6 -7 -72 -14 -39 -27 -67 -28 -62 -1 5 -4
40 -7 77 -4 57 -2 67 10 63 8 -3 23 -6 32 -6z m205 -29 c18 -15 19 -15 13 2
-5 12 -1 17 13 17 22 0 18 -20 -8 -36 -25 -16 -250 -134 -255 -134 -3 0 12 41
32 90 l36 90 75 -6 c47 -4 82 -13 94 -23z m-267 -157 c-2 -3 -12 -2 -21 2 -10
4 -16 18 -16 39 0 18 -2 48 -5 66 -4 21 4 8 20 -34 15 -38 25 -71 22 -73z
m411 66 c-17 -40 -25 -50 -44 -50 -39 0 -26 49 21 80 44 29 46 25 23 -30z
m-725 2 l28 -29 -62 10 -62 10 34 18 c19 10 34 18 35 19 0 0 12 -13 27 -28z
m645 -27 c-9 -21 -18 -25 -52 -25 l-41 1 45 24 c57 31 62 31 48 0z m-550 -25
c96 -14 99 -16 86 -66 -5 -21 -9 -20 -115 28 -60 27 -114 48 -120 46 -7 -2 35
-25 92 -51 l104 -47 -90 0 -90 0 -31 54 -32 53 52 -2 c28 -1 93 -8 144 -15z
m522 -17 c0 -3 -6 -14 -14 -22 -7 -9 -35 -47 -61 -86 l-48 -70 7 50 c17 128
15 124 49 128 58 7 67 7 67 0z m69 0 c-1 -5 -35 -39 -77 -78 -80 -75 -81 -73
-13 23 33 45 51 62 68 62 13 0 22 -3 22 -7z m-421 -40 c3 -32 2 -33 -37 -33
l-40 0 10 32 c5 18 9 34 9 36 0 2 12 2 28 0 22 -2 28 -8 30 -35z m227 19 c6
-22 -12 -163 -23 -173 -9 -8 -132 -38 -132 -32 0 2 34 47 76 99 42 52 74 97
71 100 -5 5 -146 -161 -154 -183 -10 -26 -20 -11 -36 59 -17 70 -17 72 3 93
26 28 26 44 0 20 -19 -18 -20 -17 -20 2 0 19 6 21 77 22 42 1 79 3 81 6 13 13
51 3 57 -13z m-227 -76 c2 -3 1 -18 -3 -34 -6 -29 -8 -30 -77 -34 -69 -5 -73
-5 -131 33 -34 22 -62 40 -63 42 -1 1 59 1 133 0 75 -2 138 -5 141 -7z m35
-323 l-34 -88 5 85 c3 47 6 126 6 175 l1 90 28 -87 29 -87 -35 -88z m-43 197
c0 -22 -2 -40 -5 -40 -2 0 -30 18 -61 40 l-57 40 61 0 62 0 0 -40z m100 -50
c-9 -23 -15 -28 -21 -18 -14 22 -10 46 9 50 25 6 26 2 12 -32z"/>
</g>
</svg>
