<?xml version="1.0" standalone="no"?>
<!DOCTYPE svg PUBLIC "-//W3C//DTD SVG 20010904//EN"
 "http://www.w3.org/TR/2001/REC-SVG-20010904/DTD/svg10.dtd">
<svg version="1.0" xmlns="http://www.w3.org/2000/svg"
 width="300.000000pt" height="425.000000pt" viewBox="0 0 300.000000 425.000000"
 preserveAspectRatio="xMidYMid meet">
<metadata>
Created by potrace 1.10, written by Peter Selinger 2001-2011
</metadata>
<g transform="translate(0.000000,425.000000) scale(0.100000,-0.100000)"
fill="#000000" stroke="none">
<path d="M1905 3092 c-11 -2 -49 -28 -85 -56 -243 -194 -311 -246 -321 -246
-16 0 -175 119 -259 194 -36 32 -85 67 -110 79 -43 19 -51 20 -190 8 -80 -7
-171 -10 -203 -6 -31 4 -82 4 -113 0 -52 -6 -62 -12 -113 -63 -123 -123 -235
-248 -246 -277 -9 -21 -12 -98 -11 -262 2 -215 3 -233 21 -255 11 -13 68 -75
126 -138 58 -63 114 -125 125 -138 31 -38 364 -346 564 -523 102 -89 233 -207
291 -261 l106 -97 69 62 c38 34 118 104 177 156 59 51 104 98 100 104 -3 6 -1
7 5 3 6 -4 110 80 239 191 125 109 265 229 310 266 115 95 180 171 237 274 27
48 67 115 89 147 39 59 40 60 28 110 -7 28 -21 122 -31 210 -24 197 -42 241
-133 315 -34 28 -89 81 -121 117 -33 37 -73 72 -90 79 -22 9 -92 12 -236 12
-113 0 -214 -3 -225 -5z m215 -43 c91 -12 167 -24 169 -25 4 -4 -54 -68 -324
-364 -88 -96 -182 -200 -208 -230 l-48 -55 7 40 c7 39 35 139 139 498 49 165
50 168 75 164 14 -3 99 -15 190 -28z m208 11 c-16 -25 -39 -25 -178 -1 l-105
19 148 1 c145 1 147 1 135 -19z m136 -84 c53 -49 95 -91 92 -93 -6 -6 -220
136 -224 148 -5 12 18 41 29 37 4 -2 50 -43 103 -92z m-1407 78 c-14 -14 -174
-84 -192 -84 -30 0 -233 68 -210 71 11 1 90 5 175 9 85 3 173 7 194 8 22 1 37
-1 33 -4z m812 -31 c-10 -47 -61 -224 -127 -448 -27 -93 -52 -179 -54 -190 -6
-27 -50 60 -123 241 l-56 139 49 42 c40 35 313 252 318 253 1 0 -2 -17 -7 -37z
m-676 -27 c42 -30 102 -76 135 -103 32 -26 72 -58 88 -70 28 -21 29 -21 4 -16
-62 13 -447 123 -515 147 -12 5 173 94 196 95 9 1 51 -23 92 -53z m-457 -318
c35 -76 59 -138 55 -138 -5 0 -100 33 -212 74 -112 41 -223 80 -246 87 -24 6
-43 15 -43 19 0 13 52 73 165 193 l110 117 54 -108 c30 -59 82 -169 117 -244z
m-17 317 c62 -19 120 -35 127 -35 17 0 17 -18 0 -155 -8 -60 -18 -139 -21
-174 -7 -60 -9 -63 -22 -45 -36 48 -218 444 -205 444 4 0 58 -16 121 -35z
m1621 -52 c85 -179 300 -666 296 -671 -5 -4 -92 2 -616 44 -168 13 -309 24
-313 24 -5 0 24 37 64 83 82 93 532 587 535 587 1 0 17 -30 34 -67z m170 -54
c47 -31 100 -70 118 -86 l32 -28 -6 -234 -7 -234 -22 44 c-11 24 -54 118 -94
209 -41 91 -100 222 -133 292 -32 70 -58 129 -58 133 0 10 83 -36 170 -96z
m-1391 -13 c119 -35 245 -72 281 -82 l64 -18 -54 -24 c-139 -61 -568 -217
-576 -209 -3 3 1 61 10 129 8 68 18 156 22 196 5 55 10 72 22 72 8 0 112 -29
231 -64z m399 -178 c28 -56 125 -285 139 -330 4 -12 0 -16 -14 -12 -10 2 -65
13 -123 23 -189 36 -649 137 -656 144 -3 2 103 44 233 92 131 49 270 101 308
116 39 15 72 28 75 28 3 1 20 -27 38 -61z m-1098 -238 c0 -16 -130 -188 -142
-189 -5 -1 -8 95 -8 212 l0 212 75 -114 c41 -62 75 -116 75 -121z m-4 196 c86
-30 301 -106 344 -122 12 -5 10 -8 -6 -14 -34 -13 -293 -52 -308 -47 -13 5
-146 198 -146 211 0 10 14 7 116 -28z m2295 -194 l23 -144 -25 -19 c-44 -34
-53 -26 -45 42 3 34 6 123 7 198 1 154 5 146 40 -77z m-1921 21 c1 -38 -203
-566 -211 -550 -7 11 -110 424 -124 493 l-6 32 68 7 c37 4 109 15 158 25 120
24 115 24 115 -7z m462 -62 c207 -45 383 -81 392 -81 9 0 16 -2 16 -5 0 -13
-332 -438 -499 -639 -113 -134 -116 -137 -123 -110 -8 28 -78 341 -159 709
-22 99 -42 188 -46 199 -4 16 -1 18 18 13 13 -3 193 -42 401 -86z m-358 -266
c111 -483 134 -590 130 -594 -2 -2 -21 8 -41 22 -62 43 -346 266 -370 290
l-21 22 94 250 c52 138 102 270 111 295 l16 44 18 -64 c10 -36 38 -155 63
-265z m-394 17 c33 -133 60 -245 60 -250 -1 -4 -15 9 -33 29 -18 21 -81 91
-140 158 -68 76 -106 126 -101 133 26 47 140 186 146 180 5 -5 35 -117 68
-250z m1565 127 c72 -6 204 -17 295 -24 91 -8 191 -15 223 -15 31 0 57 -4 57
-10 0 -9 -16 -47 -83 -191 l-35 -77 -383 165 c-211 90 -384 165 -385 166 -5 5
192 -4 311 -14z m-371 -90 c32 -120 148 -700 141 -707 -5 -6 -640 25 -717 34
-27 3 -48 9 -48 12 1 4 76 102 168 218 92 117 226 286 297 376 72 91 131 164
132 163 1 0 14 -44 27 -96z m239 -176 c111 -129 204 -239 206 -245 4 -11 -201
-217 -255 -255 l-31 -22 -28 147 c-15 81 -51 258 -80 394 -45 215 -49 246 -33
231 11 -9 110 -122 221 -250z m-153 247 c46 -14 174 -67 415 -172 132 -58 255
-111 273 -118 18 -7 29 -17 25 -21 -11 -11 -315 -169 -325 -169 -10 0 -92 89
-238 260 -73 85 -151 175 -174 199 -27 29 -34 41 -21 36 11 -4 31 -11 45 -15z
m920 -17 c0 -5 -23 -42 -50 -83 -27 -41 -50 -72 -50 -68 0 11 57 127 70 143
13 16 30 20 30 8z m-280 -357 c0 -2 -29 -25 -65 -51 -36 -25 -63 -50 -60 -54
6 -11 -94 -106 -270 -257 -77 -67 -146 -128 -154 -137 -7 -10 -18 -17 -24 -17
-25 0 304 303 411 379 18 13 31 25 29 28 -3 2 -36 -18 -74 -46 -49 -36 -69
-46 -71 -36 -8 34 40 76 143 125 57 27 106 54 110 60 6 10 25 14 25 6z m-295
-188 c-4 -13 -17 -33 -29 -46 -27 -31 -143 -108 -126 -85 13 18 152 152 158
153 2 0 0 -10 -3 -22z m-1244 -69 c46 -35 155 -132 242 -217 86 -86 157 -151
157 -146 0 4 -24 33 -52 62 -74 76 -26 48 54 -32 78 -77 123 -135 92 -118 -10
6 -30 22 -43 36 -13 14 -27 24 -31 21 -8 -5 -124 94 -300 256 -75 68 -160 146
-190 173 -69 61 -38 45 71 -35z m1079 -121 c-36 -34 -116 -111 -177 -170 -62
-59 -113 -105 -113 -102 0 11 120 150 177 206 50 49 158 128 173 128 3 0 -24
-28 -60 -62z m-425 -29 c116 -6 221 -13 235 -16 24 -5 24 -5 -10 -20 -19 -8
-107 -41 -195 -73 -88 -31 -177 -65 -198 -73 l-38 -16 -119 100 c-66 55 -122
105 -126 111 -5 8 26 9 117 5 68 -4 219 -12 334 -18z m268 -53 c-13 -22 -307
-365 -314 -365 -4 -1 -34 39 -68 89 -34 49 -66 92 -71 95 -22 13 -6 25 93 64
108 43 347 130 360 130 4 1 4 -5 0 -13z"/>
<path d="M1285 1270 c3 -5 8 -10 11 -10 3 0 2 5 -1 10 -3 6 -8 10 -11 10 -3 0
-2 -4 1 -10z"/>
</g>
</svg>
