<?xml version="1.0" standalone="no"?>
<!DOCTYPE svg PUBLIC "-//W3C//DTD SVG 20010904//EN"
 "http://www.w3.org/TR/2001/REC-SVG-20010904/DTD/svg10.dtd">
<svg version="1.0" xmlns="http://www.w3.org/2000/svg"
 width="300.000000pt" height="424.000000pt" viewBox="0 0 300.000000 424.000000"
 preserveAspectRatio="xMidYMid meet">
<metadata>
Created by potrace 1.10, written by Peter Selinger 2001-2011
</metadata>
<g transform="translate(0.000000,424.000000) scale(0.100000,-0.100000)"
fill="#000000" stroke="none">
<path d="M142 3347 c-12 -13 -22 -27 -22 -31 0 -4 27 -36 61 -71 34 -36 88
-110 122 -169 46 -78 94 -141 185 -239 68 -74 155 -181 193 -238 66 -98 75
-107 164 -164 63 -40 119 -88 171 -143 l77 -83 -24 -27 c-13 -15 -38 -43 -55
-62 -17 -19 -73 -116 -123 -215 -66 -128 -119 -217 -187 -307 -52 -71 -94
-130 -94 -133 0 -3 16 -5 35 -5 l35 0 0 -175 c0 -96 3 -175 7 -175 4 0 28 21
54 46 l46 46 7 -44 c3 -23 11 -101 17 -173 6 -71 14 -164 18 -205 l6 -75 65
82 c35 45 66 81 67 79 2 -2 -1 -25 -7 -52 -6 -28 -9 -95 -8 -149 l3 -100 58
165 c32 91 69 194 82 230 51 136 103 379 111 508 l7 123 81 38 c44 22 115 55
156 74 41 19 107 61 147 94 76 62 187 199 243 298 18 33 52 92 75 130 23 39
86 153 139 255 52 102 122 221 154 264 l59 80 219 57 c342 88 394 103 394 111
0 4 -6 6 -12 3 -7 -2 -132 -9 -278 -15 -227 -10 -276 -9 -340 4 -184 36 -220
39 -325 26 l-100 -13 -65 -69 c-57 -61 -68 -79 -90 -151 -25 -78 -28 -83 -78
-116 -66 -43 -60 -54 7 -12 l51 31 187 -11 c103 -6 189 -12 191 -13 1 -2 -35
-6 -80 -9 -46 -4 -155 -13 -242 -21 -87 -9 -163 -13 -168 -10 -5 3 -15 0 -23
-6 -12 -10 -23 -5 -59 28 -126 116 -611 442 -889 597 -234 130 -373 167 -425
112z m198 -16 c44 -17 136 -60 203 -97 200 -110 660 -409 797 -519 36 -28 78
-60 93 -70 48 -31 11 -38 -110 -20 -60 9 -139 20 -178 25 -38 5 -173 23 -299
39 l-229 31 -101 106 c-104 110 -118 128 -95 122 8 -1 229 -75 492 -162 346
-116 480 -157 488 -149 8 8 5 11 -12 10 -13 0 -246 74 -518 166 l-493 166 -32
53 c-18 29 -45 74 -60 101 l-28 47 93 -44 c129 -60 278 -131 449 -213 364
-175 581 -275 585 -271 3 3 -43 28 -102 56 -60 28 -223 106 -363 172 -140 67
-349 167 -465 222 -184 87 -217 106 -267 156 l-58 56 22 23 c30 32 88 30 188
-6z m1726 -476 c29 -82 51 -157 48 -165 -4 -11 -2 -12 7 -3 9 9 -1 47 -40 164
-28 84 -50 154 -48 155 1 1 33 -3 70 -8 66 -10 68 -11 63 -37 -3 -14 -11 -83
-17 -153 -7 -71 -15 -128 -18 -129 -3 0 -15 -2 -26 -5 -20 -3 -437 16 -443 21
-6 5 40 145 48 145 4 0 89 -36 188 -80 99 -44 184 -80 190 -80 33 0 9 34 -114
159 -123 127 -134 141 -113 145 53 12 125 24 138 22 8 0 35 -63 67 -151z m191
114 c35 -6 63 -14 63 -17 0 -17 -160 -266 -167 -259 -1 2 4 66 12 143 8 76 15
140 15 142 0 4 11 2 77 -9z m483 3 c-28 -3 -39 -7 -28 -11 9 -3 -15 -7 -55 -8
-40 -1 -134 -12 -209 -25 -76 -13 -138 -21 -138 -18 0 3 7 14 15 24 13 17 37
21 197 31 186 12 314 16 218 7z m-775 -143 c77 -78 131 -139 120 -136 -11 3
-96 39 -188 81 -92 42 -173 76 -178 76 -6 0 12 27 41 60 29 33 55 60 59 60 3
0 69 -64 146 -141z m545 72 c-102 -26 -195 -51 -207 -55 -26 -8 -29 2 -10 27
9 13 58 25 182 46 240 40 248 36 35 -18z m-1664 -226 c109 -15 295 -39 412
-54 117 -14 210 -29 206 -33 -4 -4 -17 -5 -28 -2 -12 3 -130 -9 -261 -26 -132
-17 -276 -36 -319 -41 -44 -6 -83 -12 -86 -14 -7 -4 -140 188 -140 201 0 3 4
3 8 0 5 -3 98 -17 208 -31z m1236 -111 c-27 -49 -77 -144 -112 -212 -34 -68
-75 -138 -91 -155 l-29 -32 6 31 c3 18 -9 104 -30 215 -20 102 -36 190 -36
196 0 7 28 14 68 18 37 3 82 8 100 11 19 3 32 2 29 -3 -7 -11 -107 -404 -106
-417 1 -22 20 39 64 211 25 98 48 185 51 194 3 11 24 19 67 25 34 6 63 9 65 8
2 -1 -19 -42 -46 -90z m-308 39 c3 -10 16 -81 31 -158 14 -77 30 -161 36 -188
6 -26 8 -55 3 -65 -4 -9 -6 -21 -5 -25 1 -5 -3 -6 -8 -2 -6 3 -92 23 -193 45
-101 22 -193 42 -205 45 l-21 5 18 62 c10 35 22 62 26 61 5 -1 72 -38 149 -83
77 -45 157 -91 179 -102 80 -41 61 -4 -95 183 -174 211 -179 217 -179 204 0
-6 72 -95 159 -200 87 -104 158 -191 156 -193 -2 -3 -362 202 -372 211 -1 1
11 45 26 97 l27 95 105 7 c90 7 113 9 151 17 4 0 9 -7 12 -16z m-290 -28 c-3
-8 -10 -13 -14 -12 -8 2 -59 -46 -273 -253 l-99 -95 -20 25 c-11 14 -45 51
-75 82 l-55 58 29 10 c169 62 452 174 449 177 -3 3 -113 -36 -245 -86 l-241
-91 -82 52 -82 52 320 43 c175 23 327 40 336 37 10 -3 26 -1 35 5 23 13 23 13
17 -4z m-55 -205 c-27 -91 -56 -190 -64 -220 -7 -30 -47 -167 -88 -304 l-74
-250 -59 3 c-32 2 -70 4 -84 6 -14 1 -44 3 -67 4 l-41 1 255 451 c140 248 252
453 250 456 -3 2 -18 -20 -35 -49 -16 -29 -104 -183 -194 -343 -91 -159 -193
-341 -228 -402 l-62 -113 -47 0 c-25 0 -70 3 -98 6 l-53 7 43 61 c24 33 81
138 128 231 l84 170 234 233 c129 128 237 229 242 225 4 -4 -15 -82 -42 -173z
m193 -171 c106 -22 203 -43 215 -46 l21 -5 -26 -43 c-22 -37 -30 -43 -52 -39
-57 10 -264 34 -298 35 -84 1 9 18 173 31 94 7 148 14 122 16 -51 3 -385 -25
-399 -34 -11 -7 -10 4 7 61 22 73 24 77 34 70 5 -3 97 -24 203 -46z m-137
-109 c39 -5 111 -14 160 -20 50 -6 104 -13 122 -16 l32 -6 -40 -53 -40 -53
-151 75 c-140 69 -191 84 -171 49 4 -7 54 -62 111 -121 56 -60 101 -112 100
-116 -4 -10 -119 -102 -123 -98 -1 2 -15 45 -30 94 -41 139 -77 247 -80 243
-6 -5 9 -60 54 -207 23 -73 40 -135 39 -137 -10 -9 -121 -54 -125 -50 -2 2 0
75 6 163 6 87 12 178 14 203 1 26 7 45 14 45 6 0 15 3 19 8 9 8 2 9 89 -3z
m79 -85 c80 -38 145 -72 146 -75 0 -3 -18 -25 -40 -50 l-39 -45 -52 55 c-29
30 -82 86 -118 124 -36 37 -61 67 -55 65 7 -2 77 -35 158 -74z m-226 -156
l-12 -186 -50 -26 c-27 -15 -50 -26 -51 -24 -3 3 119 426 122 423 1 -1 -3 -85
-9 -187z m-388 -254 c267 -9 255 -1 152 -94 -48 -43 -159 -144 -247 -224 -88
-80 -160 -145 -160 -144 0 1 1 75 3 163 l3 162 232 58 c127 31 226 59 220 61
-6 2 -113 -21 -236 -52 -124 -31 -239 -55 -256 -53 l-31 3 35 49 c51 71 66 87
84 82 9 -2 99 -7 201 -11z m243 -59 c22 -57 -54 -413 -139 -651 -25 -71 -57
-159 -69 -195 l-24 -65 0 60 c-1 97 30 222 134 538 120 365 118 385 -17 176
-187 -288 -251 -390 -246 -394 2 -3 81 114 174 259 93 145 170 263 171 262 2
-2 -42 -141 -98 -310 l-101 -308 -66 -86 -67 -87 -7 85 c-8 98 -16 191 -26
309 l-8 83 161 148 c88 81 169 157 179 169 22 24 42 27 49 7z"/>
<path d="M1405 2630 c-3 -5 3 -10 15 -10 12 0 18 5 15 10 -3 6 -10 10 -15 10
-5 0 -12 -4 -15 -10z"/>
</g>
</svg>
