<?xml version="1.0" standalone="no"?>
<!DOCTYPE svg PUBLIC "-//W3C//DTD SVG 20010904//EN"
 "http://www.w3.org/TR/2001/REC-SVG-20010904/DTD/svg10.dtd">
<svg version="1.0" xmlns="http://www.w3.org/2000/svg"
 width="450.000000pt" height="637.000000pt" viewBox="0 0 450.000000 637.000000"
 preserveAspectRatio="xMidYMid meet">
<metadata>
Created by potrace 1.10, written by Peter Selinger 2001-2011
</metadata>
<g transform="translate(0.000000,637.000000) scale(0.100000,-0.100000)"
fill="#000000" stroke="none">
<path d="M2199 4732 c-190 -172 -1036 -905 -1283 -1113 -220 -184 -252 -222
-372 -439 -69 -125 -134 -229 -159 -254 -17 -17 -17 -21 3 -104 12 -48 26
-130 32 -182 41 -356 56 -424 109 -497 16 -23 67 -72 113 -110 46 -39 123
-114 172 -167 107 -117 139 -135 238 -138 88 -2 429 -2 514 0 98 2 58 -24 535
354 l147 117 74 -51 c75 -53 253 -194 368 -293 98 -84 133 -98 249 -97 53 0
132 5 177 11 44 6 172 10 284 9 250 -4 244 -6 373 135 51 55 143 153 205 218
62 66 119 134 126 152 11 24 14 112 14 375 0 331 -1 345 -22 383 -11 21 -107
132 -213 246 -264 286 -439 456 -823 797 -361 320 -377 334 -534 476 -239 216
-254 230 -259 230 -2 0 -33 -26 -68 -58z m181 -129 c58 -81 106 -150 108 -153
7 -17 -691 -280 -705 -266 -6 5 475 566 485 566 4 0 54 -66 112 -147z m185
-153 c131 -137 168 -180 156 -180 -19 0 -277 262 -296 300 l-17 35 42 -40 c24
-22 75 -74 115 -115z m-636 -52 c-114 -141 -259 -285 -352 -347 -42 -28 -85
-54 -95 -58 -9 -3 48 56 128 133 80 76 201 193 270 261 68 67 126 120 128 118
2 -2 -33 -50 -79 -107z m811 -58 c41 -36 160 -144 265 -240 105 -96 230 -208
278 -249 116 -99 116 -104 2 -27 -84 56 -178 127 -255 193 -84 73 -468 454
-475 471 -5 14 55 -34 185 -148z m-27 -92 l169 -143 -144 -3 c-78 -1 -287 6
-463 17 -176 11 -351 21 -390 22 -38 1 -74 4 -79 7 -10 6 115 55 364 145 102
37 219 80 260 96 65 25 78 27 94 15 11 -7 95 -78 189 -156z m-1019 -10 c-118
-121 -229 -227 -324 -309 -83 -71 -310 -252 -340 -272 -43 -27 209 207 389
361 113 97 237 207 276 244 38 36 72 64 74 62 3 -2 -31 -41 -75 -86z m466
-133 c625 -32 735 -38 739 -41 6 -5 -97 -142 -274 -364 -236 -297 -492 -620
-549 -692 -38 -49 -72 -88 -76 -88 -14 0 -101 374 -164 705 -19 99 -49 251
-65 338 -17 86 -31 160 -31 162 0 3 30 3 68 0 37 -3 195 -12 352 -20z m-432
-36 c6 -45 91 -473 127 -644 20 -93 43 -201 50 -240 8 -38 23 -113 34 -165 11
-52 18 -96 16 -98 -1 -1 -15 12 -30 30 -15 18 -46 53 -69 78 -23 25 -127 144
-231 265 -104 121 -225 260 -268 309 l-79 88 118 120 c142 144 305 289 319
285 6 -2 11 -14 13 -28z m1231 -146 c13 -60 72 -323 132 -585 116 -505 162
-719 155 -725 -3 -4 -70 10 -426 87 -113 25 -573 122 -758 161 l-52 11 22 31
c29 41 217 287 377 492 182 233 511 633 522 634 3 1 16 -47 28 -106z m184 -14
c186 -140 436 -339 456 -363 12 -14 6 -35 -39 -153 -89 -231 -123 -324 -210
-560 -35 -95 -66 -173 -70 -173 -9 0 -100 369 -189 775 -44 198 -91 408 -106
467 -28 122 -29 128 -15 128 6 0 84 -55 173 -121z m-1608 67 c-14 -19 -45 -50
-68 -69 -23 -19 -68 -60 -99 -91 -52 -51 -58 -54 -58 -33 0 41 42 90 130 150
47 32 91 64 99 72 26 26 24 7 -4 -29z m-235 -163 c0 -5 -13 -31 -29 -59 -35
-60 -83 -94 -218 -153 -51 -22 -111 -52 -133 -67 -69 -46 -55 -19 17 32 37 27
104 76 148 109 105 80 198 145 208 145 4 0 7 -3 7 -7z m62 -250 c58 -65 165
-188 238 -273 73 -85 171 -198 219 -250 48 -52 91 -100 95 -107 13 -23 -283
92 -599 232 -219 97 -484 210 -527 226 -21 7 -38 16 -38 19 0 3 28 21 62 40
70 39 430 227 439 229 3 0 53 -52 111 -116z m2299 -190 c52 -191 169 -675 164
-681 -1 -1 -51 -9 -111 -16 -60 -8 -171 -26 -247 -40 -76 -15 -143 -26 -149
-26 -24 0 4 104 82 305 66 171 141 366 212 554 5 13 11 21 14 18 3 -3 19 -54
35 -114z m227 -127 l195 -218 -20 -34 c-10 -19 -55 -79 -99 -135 -43 -56 -86
-110 -95 -121 -15 -20 -18 -13 -56 128 -38 140 -153 604 -153 619 0 14 37 -24
228 -239z m-2943 56 c116 -49 284 -122 375 -162 91 -39 246 -106 345 -147 99
-41 187 -79 195 -85 30 -19 -342 1 -765 42 -55 5 -201 17 -325 26 -124 9 -227
18 -229 20 -6 5 15 54 95 226 41 86 74 162 74 169 0 6 6 9 13 6 6 -3 106 -45
222 -95z m-391 -205 c-37 -79 -56 -109 -81 -126 -18 -11 -33 -19 -33 -16 0 14
46 94 80 140 20 27 45 65 54 83 10 19 20 31 23 29 3 -3 -17 -53 -43 -110z
m526 -167 c195 -16 459 -36 585 -45 267 -19 279 -20 268 -39 -15 -25 -214
-250 -517 -581 -165 -181 -318 -347 -338 -369 -20 -23 -39 -39 -41 -36 -13 14
-497 1090 -497 1106 0 7 52 4 540 -36z m3014 -102 c4 -79 3 -219 -1 -312 l-8
-170 -97 145 c-124 186 -126 190 -102 227 30 48 188 251 195 251 4 1 10 -63
13 -141z m-3588 91 c-3 -17 -6 -151 -6 -298 0 -165 -4 -260 -10 -250 -12 21
-92 509 -86 526 7 18 67 53 90 53 15 0 17 -5 12 -31z m85 -136 c34 -71 79
-168 101 -218 22 -49 48 -108 58 -130 10 -22 53 -119 95 -215 43 -96 95 -210
116 -252 22 -43 39 -80 39 -83 0 -18 -249 136 -395 245 l-98 73 7 111 c3 61 6
220 6 354 0 133 2 242 5 242 3 0 32 -57 66 -127z m1606 27 c168 -32 326 -66
728 -155 138 -30 258 -55 268 -55 37 0 14 -18 -55 -45 -240 -90 -852 -315
-859 -315 -16 0 -83 135 -149 299 -37 91 -81 196 -98 234 -28 61 -29 67 -12
67 10 0 90 -14 177 -30z m-195 -28 c9 -20 37 -84 63 -142 43 -98 160 -381 167
-406 4 -14 -135 -132 -362 -307 -104 -80 -176 -130 -178 -122 -5 22 88 354
249 886 16 53 29 104 29 113 0 27 14 18 32 -22z m-107 -153 c-24 -96 -87 -317
-139 -492 -53 -175 -96 -322 -96 -327 0 -5 -4 -20 -9 -33 l-9 -24 -219 32
c-120 18 -248 36 -285 40 -38 3 -68 11 -68 15 0 10 193 230 364 414 236 256
394 431 455 504 24 28 46 51 47 49 2 -2 -16 -82 -41 -178z m1987 -23 c48 -60
179 -268 173 -275 -5 -5 -107 30 -412 140 -150 55 -280 99 -288 99 -33 0 -12
17 37 30 73 18 388 69 418 67 17 -1 39 -21 72 -61z m-626 -68 c-5 -30 -24
-192 -57 -480 -8 -71 -15 -98 -25 -98 -15 0 -45 9 -434 123 -140 42 -295 87
-345 100 l-90 25 68 31 c141 64 845 328 881 330 4 1 6 -14 2 -31z m146 -2
c131 -49 452 -164 523 -188 121 -40 145 -50 145 -56 0 -13 -156 -190 -288
-328 l-131 -136 -99 199 c-119 239 -257 543 -247 543 3 0 46 -15 97 -34z m-54
-136 c76 -142 266 -560 258 -567 -2 -3 -53 10 -113 27 -59 18 -147 44 -195 58
-80 23 -88 28 -88 50 0 14 11 115 25 226 13 110 27 232 30 269 8 81 6 82 83
-63z m-903 -254 c55 -14 204 -56 330 -94 127 -38 263 -78 303 -88 39 -10 72
-21 72 -24 0 -9 -63 -41 -170 -87 -58 -25 -111 -50 -117 -55 -18 -15 -140 64
-298 191 -71 58 -154 122 -184 143 -30 21 -50 38 -45 38 5 0 54 -11 109 -24z
m-1714 -129 c176 -112 278 -183 279 -193 0 -6 -11 -21 -25 -34 l-24 -23 -33
28 c-62 53 -281 265 -272 264 5 0 39 -19 75 -42z m2684 -156 c55 -18 107 -35
115 -38 24 -11 -117 -20 -380 -27 l-245 -7 75 38 c41 21 107 52 145 69 l70 31
60 -18 c33 -9 105 -31 160 -48z m-2163 -72 c92 -13 162 -27 155 -31 -19 -12
-407 -10 -407 3 0 5 8 21 18 34 12 18 24 24 42 21 14 -3 100 -15 192 -27z"/>
</g>
</svg>
