<?xml version="1.0" standalone="no"?>
<!DOCTYPE svg PUBLIC "-//W3C//DTD SVG 20010904//EN"
 "http://www.w3.org/TR/2001/REC-SVG-20010904/DTD/svg10.dtd">
<svg version="1.0" xmlns="http://www.w3.org/2000/svg"
 width="423.000000pt" height="750.000000pt" viewBox="0 0 423.000000 750.000000"
 preserveAspectRatio="xMidYMid meet">
<metadata>
Created by potrace 1.16, written by Peter Selinger 2001-2019
</metadata>
<g transform="translate(0.000000,750.000000) scale(0.100000,-0.100000)"
fill="#000000" stroke="none">
<path d="M659 6652 l-86 -35 -23 -106 c-25 -116 -35 -140 -85 -210 -18 -25
-61 -90 -95 -144 l-61 -98 6 -77 7 -77 -62 -127 -62 -128 19 -82 c15 -66 31
-101 74 -168 31 -47 86 -134 124 -193 38 -60 73 -111 78 -114 9 -5 -9 25 -92
152 -44 69 -45 71 -49 170 -2 61 0 96 5 90 5 -5 33 -40 62 -77 77 -99 72 -83
-6 22 l-68 91 -5 -97 -5 -96 -47 79 c-40 67 -68 151 -68 204 0 6 85 29 105 29
3 0 6 -15 6 -32 l2 -33 6 34 6 35 159 -165 c87 -90 155 -157 150 -149 -4 8
-65 73 -134 143 -69 71 -126 132 -128 137 -2 5 83 -31 189 -81 105 -49 194
-87 197 -85 3 3 -6 10 -19 15 -28 11 -281 130 -356 169 -29 14 -53 32 -53 40
0 8 7 41 16 74 8 33 13 62 11 65 -3 2 -11 -20 -18 -49 l-13 -53 -7 40 c-4 22
-8 59 -8 83 -1 37 2 44 25 52 36 14 37 14 31 -27 l-6 -38 11 33 c6 17 15 32
20 32 5 0 85 -73 176 -163 92 -90 206 -201 254 -247 49 -46 86 -85 84 -87 -2
-3 -23 5 -46 17 -23 12 -43 20 -45 18 -2 -2 34 -22 79 -46 l83 -42 39 -100
c21 -55 40 -96 42 -92 1 5 -11 43 -28 85 -39 98 -39 107 5 107 19 0 35 4 35 8
0 9 15 12 314 69 109 20 194 39 188 41 -5 1 -132 -20 -280 -48 -149 -27 -276
-50 -282 -50 -8 0 -11 14 -8 40 4 42 -8 42 -14 0 -2 -16 -11 5 -27 63 -13 49
-25 86 -27 84 -3 -3 4 -38 16 -78 11 -40 20 -77 20 -82 0 -14 -81 90 -159 203
-39 58 -112 157 -161 220 -55 71 -89 124 -90 140 0 38 40 333 48 348 6 12 73
41 94 42 5 0 15 -27 25 -60 9 -33 20 -60 24 -60 8 0 237 -125 285 -155 19 -12
20 -19 13 -62 -15 -89 -39 -308 -38 -348 1 -22 9 32 19 120 26 228 32 265 42
265 9 0 410 -223 433 -240 6 -4 96 -55 200 -112 232 -128 257 -143 248 -151
-3 -4 2 -7 13 -7 21 0 410 -213 437 -239 4 -4 -54 -7 -130 -5 l-138 2 132 -7
c73 -4 136 -10 139 -14 4 -4 -10 -14 -32 -23 -21 -9 -68 -29 -104 -46 -79 -37
-218 -99 -680 -306 l-355 -159 -22 41 c-12 22 -22 37 -23 33 0 -5 5 -17 10
-28 21 -38 -8 -18 -76 54 -193 203 -421 433 -367 372 33 -38 140 -151 236
-250 96 -99 173 -181 172 -183 -2 -2 -80 48 -173 111 -94 63 -177 118 -184
122 -38 20 57 -48 214 -152 197 -131 192 -124 163 -219 -19 -62 -18 -93 1 -39
12 35 13 -45 8 -605 -3 -355 -9 -856 -14 -1115 -5 -258 -10 -576 -11 -705 -1
-169 -4 -222 -10 -190 -21 106 -109 724 -109 766 0 18 -11 90 -24 160 -23 119
-48 272 -93 562 -16 109 -16 117 1 180 30 110 28 113 -7 8 l-32 -98 -44 208
c-97 466 -139 671 -144 699 -3 17 -13 59 -22 95 -9 35 -29 126 -45 201 l-28
137 20 99 c11 54 21 99 23 102 2 2 35 -18 72 -45 37 -26 63 -41 56 -33 -7 8
-42 35 -78 60 -47 31 -90 75 -151 152 -47 59 -88 107 -90 107 -6 0 119 -162
153 -200 13 -14 23 -29 23 -35 0 -23 -33 -181 -40 -188 -4 -4 -19 10 -35 33
-31 44 -48 56 -20 13 52 -78 54 -86 62 -223 l8 -135 5 90 5 90 34 -162 34
-162 -24 -63 -24 -63 -7 50 c-3 28 -7 85 -7 127 -1 42 -4 79 -8 81 -5 3 -7
-38 -5 -91 l3 -97 -75 -157 c-41 -87 -107 -206 -146 -264 -38 -59 -79 -133
-91 -163 -22 -58 -37 -141 -25 -141 16 0 63 30 85 54 39 41 42 31 12 -36 -62
-137 -123 -378 -97 -378 4 0 51 38 104 84 53 47 98 83 100 81 2 -1 -10 -27
-27 -56 -36 -64 -85 -208 -112 -327 -32 -145 -47 -502 -20 -502 3 0 17 17 31
37 14 20 30 41 35 47 6 6 35 39 64 74 30 34 57 62 61 62 4 0 16 -62 26 -137
16 -124 16 -162 6 -378 -7 -132 -15 -252 -18 -268 -16 -72 79 14 166 150 28
43 50 74 50 68 0 -5 -5 -50 -11 -98 -17 -139 10 -426 67 -707 30 -147 72 -280
88 -280 6 0 16 21 23 48 24 99 96 263 175 397 82 138 83 139 89 105 3 -19 18
-107 34 -195 38 -221 84 -399 140 -540 52 -132 138 -308 192 -394 103 -165
132 -215 129 -218 -2 -2 11 -18 28 -36 17 -18 40 -51 51 -73 37 -72 59 -67 47
12 -13 82 -3 151 42 299 24 77 50 163 57 190 11 45 48 130 180 413 42 91 269
427 280 415 30 -34 52 -355 29 -433 -13 -44 -13 -53 0 -45 34 21 163 358 270
700 17 57 49 200 56 254 12 89 23 36 26 -118 2 -77 6 -141 11 -141 4 0 7 4 7
8 0 4 31 50 70 102 53 72 84 130 131 240 64 150 134 353 144 418 13 80 28 142
35 142 8 0 30 -62 30 -88 0 -11 4 -23 9 -26 22 -14 92 449 105 697 3 44 7 81
9 83 2 3 14 -14 25 -37 24 -48 25 -47 43 64 16 103 6 431 -17 561 -10 53 -15
98 -12 101 3 3 56 1 118 -5 l113 -9 191 44 c105 25 210 50 233 56 23 6 53 9
66 5 l23 -5 -28 57 c-15 33 -48 77 -75 102 -56 51 -335 313 -373 350 -14 14
-69 66 -121 116 -70 67 -109 115 -153 187 -32 53 -60 97 -62 97 -8 0 34 -75
126 -225 208 -339 302 -496 298 -501 -3 -2 -97 37 -209 87 -229 103 -387 173
-439 195 -26 11 -53 41 -105 114 -38 55 -74 109 -79 119 -6 14 0 37 22 83 34
69 151 290 157 296 2 2 42 -18 90 -45 55 -30 92 -58 101 -75 8 -15 19 -30 25
-34 6 -3 0 12 -12 34 -18 31 -41 50 -99 81 -99 53 -115 65 -298 231 l-157 142
140 -135 c136 -132 156 -159 86 -116 -18 11 -35 18 -38 15 -3 -2 26 -20 63
-40 l69 -34 -205 3 -205 3 198 -13 c109 -7 200 -15 203 -18 3 -3 -9 -25 -28
-49 -48 -64 -182 -216 -190 -217 -4 -1 -28 20 -54 47 l-47 47 40 -46 c23 -26
53 -65 68 -88 27 -40 27 -43 14 -84 -8 -23 -13 -46 -11 -51 3 -10 -37 -216
-70 -365 l-22 -94 -31 64 c-17 35 -30 71 -27 79 3 12 2 13 -6 1 -18 -25 -30
17 -59 210 -15 101 -29 176 -31 167 -2 -10 6 -79 18 -154 12 -74 19 -142 16
-150 -3 -9 1 -28 9 -44 8 -16 16 -46 16 -67 1 -21 3 -30 6 -20 9 35 26 14 80
-102 l56 -119 114 -47 c62 -26 118 -55 123 -64 5 -9 10 -11 10 -4 0 8 25 10
88 7 139 -7 212 -15 212 -24 0 -4 -56 -149 -124 -322 -68 -172 -188 -477 -265
-678 -78 -201 -155 -396 -170 -435 -27 -64 -220 -566 -286 -743 -15 -40 -28
-72 -30 -70 -1 2 51 217 116 478 117 467 124 498 114 488 -4 -3 -223 -857
-265 -1033 -6 -26 -8 -27 -15 -11 -9 20 -1 208 14 357 22 215 34 356 29 369
-8 24 -51 -448 -56 -615 l-4 -159 -54 134 c-85 216 -355 923 -364 951 -8 25
-2 64 61 392 17 87 29 163 27 169 -2 6 -16 -53 -31 -133 -15 -79 -37 -195 -49
-256 -21 -110 -30 -131 -41 -95 -3 9 -26 71 -52 137 -116 297 -118 302 -105
341 7 19 10 37 8 39 -2 2 -44 -106 -92 -241 -49 -134 -91 -242 -94 -240 -5 5
-13 47 -82 431 -22 127 -54 300 -70 385 -16 85 -54 297 -85 470 -30 173 -65
362 -76 419 -14 76 -17 107 -9 117 7 7 36 18 66 25 30 7 50 15 44 19 -12 7
-20 4 485 231 198 89 419 188 490 220 72 32 132 54 134 48 4 -13 -126 -240
-147 -256 -9 -8 -11 -13 -4 -13 8 0 6 -17 -8 -52 -22 -58 -26 -81 -9 -58 8 11
9 6 5 -20 -16 -88 -16 -114 0 -55 8 33 13 70 11 82 -2 12 -1 20 4 18 4 -3 9 5
11 17 2 13 7 -13 11 -57 8 -89 44 -424 51 -470 11 -78 -4 145 -17 250 -19 146
-27 285 -19 285 4 0 30 -44 58 -98 73 -140 156 -283 162 -277 3 2 -20 46 -50
97 -31 51 -85 150 -122 220 l-66 127 59 103 c32 57 64 114 71 128 l14 25 7
-25 c7 -24 7 -24 8 5 l2 30 49 -54 c28 -30 50 -51 50 -45 -1 5 -19 27 -40 49
-22 22 -40 43 -40 48 0 4 17 8 38 8 32 2 33 2 7 6 -61 7 -75 14 -90 43 -9 17
-11 30 -6 30 5 0 80 -14 166 -31 86 -16 159 -28 161 -26 3 2 -58 16 -133 31
-216 43 -208 39 -234 94 -12 26 -43 82 -67 125 -25 42 -42 80 -38 84 3 4 12 1
18 -5 7 -7 17 -12 23 -12 5 0 -1 10 -15 21 l-25 21 25 -6 c14 -2 52 -8 85 -11
33 -4 67 -8 75 -10 8 -2 42 -7 75 -11 33 -3 67 -11 75 -17 8 -6 -1 6 -19 26
-34 36 -56 52 -31 22 7 -9 11 -17 9 -19 -7 -6 -505 61 -521 70 -13 8 -12 22
11 114 l26 105 55 -2 c30 -1 70 -5 89 -8 l34 -6 -39 -42 -39 -41 44 37 c25 20
48 37 52 37 5 0 39 -28 76 -62 116 -106 123 -112 123 -106 0 4 -46 49 -103
101 l-103 94 -85 8 c-112 11 -123 10 -274 -24 -128 -28 -130 -28 -157 -10 -15
11 -34 16 -45 13 -12 -4 -14 -3 -6 3 9 6 -57 56 -215 162 -125 84 -272 184
-327 222 -55 39 -139 97 -186 129 -53 36 -123 98 -180 159 -52 56 -98 100
-104 100 -5 -1 -49 -17 -96 -37z m498 -318 c92 -63 266 -181 386 -261 120 -80
216 -148 213 -150 -2 -2 -51 20 -108 50 -56 30 -182 96 -278 147 -96 51 -245
128 -330 173 -169 87 -184 97 -154 97 10 1 35 14 54 30 19 17 38 30 42 30 4 0
83 -52 175 -116z m-271 11 c23 -19 46 -35 51 -35 4 0 -1 7 -11 15 -11 8 -17
15 -13 15 24 0 983 -507 1028 -543 l34 -27 -95 5 c-121 7 -106 -1 28 -14 78
-7 108 -14 129 -30 14 -12 29 -19 32 -15 7 7 -21 29 -88 69 -28 17 -51 32 -51
35 0 3 -14 14 -31 24 -17 10 -28 20 -25 23 7 7 250 62 254 58 6 -6 -40 -199
-49 -209 -5 -6 -9 -17 -9 -25 0 -9 -17 -42 -38 -73 l-38 -57 -184 103 c-102
56 -194 107 -205 114 -16 9 1 10 80 7 l100 -4 -117 13 c-106 13 -121 17 -154
45 -21 16 -41 28 -45 25 -5 -3 -46 16 -91 42 -293 166 -594 337 -597 340 -4 4
52 134 58 134 2 0 23 -16 47 -35z m-296 -29 c0 -5 -32 -51 -70 -102 -60 -77
-79 -95 -122 -113 -28 -12 -53 -20 -54 -18 -5 4 98 167 148 235 l39 52 29 -22
c17 -12 30 -26 30 -32z m10 -106 c-5 -36 -14 -102 -21 -148 l-12 -83 -22 21
c-12 12 -30 36 -40 54 -17 31 -17 33 4 74 29 56 21 53 -16 -6 -17 -27 -45 -59
-63 -72 -18 -13 -29 -17 -24 -9 25 41 150 197 155 193 4 -2 14 8 24 22 9 14
18 24 20 22 3 -2 0 -33 -5 -68z m1514 -604 c28 -65 42 -76 95 -76 17 0 56 -33
137 -115 62 -63 112 -115 110 -115 -5 0 -177 99 -191 110 -5 4 -46 26 -90 50
-113 61 -165 91 -165 97 0 8 65 112 70 112 3 0 18 -28 34 -63z m751 -796 l-5
55 21 -50 c23 -55 35 -74 24 -35 -4 14 21 -13 56 -60 34 -47 68 -89 75 -95 6
-5 31 -40 54 -77 23 -38 44 -68 47 -68 5 0 -27 56 -60 103 -10 16 -17 30 -15
32 3 3 40 -10 83 -28 76 -31 86 -39 273 -226 107 -107 210 -207 228 -222 25
-20 31 -30 22 -35 -18 -11 -187 -18 -242 -10 -41 6 -47 12 -86 71 -23 36 -44
65 -47 65 -5 0 2 -12 37 -65 44 -66 44 -63 -2 -60 -24 1 -66 3 -95 4 l-51 1
-23 55 c-12 30 -24 53 -27 51 -2 -3 6 -26 17 -51 12 -26 21 -50 21 -52 0 -8
-163 8 -182 18 -9 5 -21 31 -27 61 l-10 53 4 -47 c3 -27 1 -48 -4 -48 -5 0
-31 10 -60 21 l-51 22 1 336 c1 305 3 331 15 281 l13 -55 -4 55z m720 -110
c55 -52 154 -147 220 -211 66 -63 145 -139 177 -168 51 -48 88 -104 76 -117
-3 -2 -75 25 -160 62 -153 65 -156 67 -188 118 -67 108 -223 363 -248 406
l-26 45 24 -20 c14 -11 70 -63 125 -115z m-759 -497 c-2 -2 -15 2 -29 8 -16 7
-34 30 -46 59 l-21 48 45 239 c25 131 46 243 47 248 2 6 4 -127 5 -294 2 -167
2 -306 -1 -308z m-1547 287 c17 -96 40 -222 51 -280 11 -58 43 -233 71 -390
28 -157 71 -395 95 -530 25 -135 52 -286 61 -336 l16 -92 -46 -128 c-53 -148
-149 -416 -245 -683 l-67 -184 -6 59 c-7 56 -5 252 6 809 3 138 7 592 10 1010
5 682 10 933 20 923 2 -2 17 -82 34 -178z m2119 -16 c59 -26 122 -57 140 -71
61 -46 273 -256 265 -263 -4 -4 -27 -12 -50 -18 -40 -9 -46 -8 -85 21 -48 34
-398 377 -385 377 4 0 56 -21 115 -46z m-2844 -408 c-95 -236 -98 -242 -153
-293 -62 -59 -81 -65 -81 -28 0 45 41 135 110 240 38 57 102 173 142 257 73
152 73 152 76 109 3 -36 -13 -85 -94 -285z m3171 264 c95 -41 131 -63 173
-104 l53 -51 -38 -12 c-76 -23 -80 -21 -213 108 -69 67 -118 119 -110 116 8
-3 69 -28 135 -57z m-3030 13 c-20 -117 -60 -327 -87 -453 -17 -80 -39 -189
-48 -244 -10 -54 -24 -104 -32 -110 -59 -53 -201 -172 -209 -174 -36 -13 75
325 151 458 4 8 56 138 115 288 59 149 110 272 112 272 2 0 1 -17 -2 -37z m26
-38 c5 4 9 -26 9 -70 0 -42 7 -290 16 -552 l15 -476 -34 -51 c-19 -28 -63
-100 -97 -161 -34 -60 -64 -112 -67 -115 -7 -6 3 99 27 280 18 139 34 273 45
390 3 30 10 89 15 130 22 179 42 389 38 401 -2 7 -15 -83 -27 -201 -22 -207
-24 -216 -54 -257 -57 -80 -57 -72 -2 187 18 85 41 198 50 250 9 52 23 124 30
160 l14 65 -4 -95 c-4 -83 -3 -89 6 -45 5 28 8 84 6 125 -3 41 -2 65 0 52 2
-12 9 -20 14 -17z m99 -340 c38 -192 74 -365 80 -384 9 -34 4 -117 -20 -321
-11 -87 -43 -420 -60 -615 -24 -265 -32 -172 -45 525 -3 146 -10 366 -15 490
-15 359 -22 665 -17 660 3 -3 38 -163 77 -355z m2506 -87 c-4 -129 -4 -130 4
-33 4 55 8 115 9 134 0 19 3 32 5 30 27 -27 45 -500 23 -589 l-13 -55 -22 35
c-21 33 -22 43 -18 185 5 160 6 164 -16 -100 l-3 -40 -18 35 c-18 34 -18 40 7
220 14 102 28 213 32 248 4 34 8 62 10 62 2 0 2 -60 0 -132z m-36 -38 c-11
-80 -35 -269 -55 -420 -19 -151 -42 -324 -50 -385 -8 -60 -17 -135 -20 -165
-4 -30 -13 -86 -21 -125 -8 -38 -21 -104 -30 -145 -19 -93 -87 -289 -151 -438
-42 -99 -156 -282 -174 -282 -6 0 -18 177 -19 280 -1 25 114 434 191 684 23
72 47 154 54 181 8 28 57 194 110 370 53 176 115 382 138 457 22 76 42 136 43
135 2 -2 -6 -68 -16 -147z m-151 -360 c-76 -256 -172 -575 -213 -710 -41 -135
-93 -310 -116 -390 -23 -80 -43 -146 -45 -148 -2 -2 -6 20 -9 50 -3 29 -8 69
-10 88 -2 19 -3 -17 -3 -80 1 -129 -19 -246 -76 -445 -54 -188 -168 -509 -205
-580 l-21 -40 -1 96 c0 63 -9 138 -25 217 l-26 119 34 94 c19 52 83 220 141
374 59 154 117 306 129 338 12 31 25 57 29 57 4 0 9 -26 11 -57 3 -43 4 -36 4
27 1 100 -16 53 388 1080 69 173 130 330 136 348 6 18 13 32 14 30 2 -2 -59
-212 -136 -468z m-2529 -40 c-11 -96 -28 -245 -40 -330 -11 -85 -20 -174 -20
-197 0 -39 -7 -50 -72 -124 -40 -45 -81 -92 -91 -105 -10 -13 -23 -22 -28 -18
-12 7 -11 193 1 306 11 105 53 278 90 369 32 80 96 195 113 206 7 4 23 23 36
41 13 18 25 32 27 30 2 -2 -5 -82 -16 -178z m344 -60 c8 -63 23 -160 31 -215
9 -55 34 -221 55 -370 22 -148 64 -432 94 -630 63 -416 68 -360 -45 -545 -62
-101 -169 -340 -169 -377 0 -15 -2 -16 -10 -3 -28 42 -78 264 -116 510 -21
137 -24 396 -7 520 26 183 44 344 63 560 11 124 29 306 40 405 11 99 23 205
26 235 8 74 18 50 38 -90z m2331 61 c11 -23 12 -51 5 -157 -12 -162 -28 -314
-39 -379 -18 -99 -43 -220 -47 -224 -2 -2 -11 13 -20 35 -11 26 -15 57 -12 99
10 132 83 663 90 659 5 -3 15 -18 23 -33z m-1446 -402 c82 -212 92 -244 81
-264 -7 -12 -54 -78 -106 -146 -51 -68 -203 -269 -336 -446 -133 -177 -243
-321 -245 -319 -2 1 15 52 37 112 45 126 345 963 416 1166 27 76 51 138 54
138 3 0 48 -109 99 -241z m-1065 -464 l7 -250 -45 -76 c-25 -41 -71 -102 -102
-135 l-55 -59 6 115 c11 220 6 464 -11 571 -13 86 -14 106 -2 128 27 53 141
247 162 276 l21 30 6 -175 c4 -96 9 -287 13 -425z m1110 -209 c-37 -47 -68
-85 -70 -83 -3 2 33 148 93 377 l28 105 8 -156 9 -157 -68 -86z m291 -201 c97
-253 181 -475 186 -492 12 -40 15 -34 -120 -227 -59 -85 -130 -197 -156 -250
-26 -53 -50 -95 -52 -92 -7 6 -12 94 -43 776 -6 124 -15 313 -20 420 -5 107
-12 251 -15 320 l-5 125 24 -60 c14 -33 104 -267 201 -520z m-289 464 c-13
-52 -57 -220 -96 -374 -173 -681 -170 -667 -176 -650 -10 28 -104 541 -104
568 0 25 28 68 130 202 72 94 160 211 198 261 37 51 68 91 70 89 2 -1 -8 -45
-22 -96z m85 -627 c9 -218 23 -524 29 -678 l13 -282 -50 -103 c-28 -57 -65
-154 -82 -215 -17 -61 -44 -149 -61 -197 -16 -48 -30 -107 -30 -132 0 -51 -12
-57 -37 -18 -10 15 -30 40 -44 55 -32 35 -187 292 -225 372 -26 54 -27 62 -16
110 10 49 40 178 67 296 7 30 29 116 49 190 20 74 77 291 125 483 49 191 96
358 104 370 35 52 129 158 135 152 4 -3 14 -185 23 -403z m-420 -149 l57 -308
-19 -60 c-10 -33 -45 -168 -79 -300 -33 -132 -64 -249 -68 -259 -7 -16 -19 9
-55 107 -57 154 -88 270 -121 447 -14 74 -32 167 -40 205 -16 80 -12 118 18
157 12 15 71 94 131 176 61 83 112 148 114 146 2 -2 30 -142 62 -311z"/>
<path d="M144 547 c4 -18 1 -27 -10 -31 -23 -9 -27 -8 -20 9 3 9 0 15 -9 15
-8 0 -15 -5 -15 -11 0 -6 -8 -1 -18 12 -13 15 -21 19 -26 11 -4 -7 -1 -12 8
-12 32 0 16 -29 -19 -36 l-34 -6 -1 -249 0 -249 665 0 c525 0 665 3 665 13 0
8 4 7 10 -3 8 -12 10 -9 10 12 0 15 4 29 8 32 4 2 8 -8 7 -22 0 -21 5 -28 23
-30 14 -2 22 2 22 12 0 8 5 18 11 22 8 4 9 0 4 -15 -6 -21 -4 -21 99 -21 72 0
106 4 106 11 0 8 4 8 13 0 10 -8 17 -7 25 1 9 9 15 9 24 0 16 -16 130 -16 146
0 9 9 12 9 12 0 0 -7 15 -11 40 -10 32 1 40 5 40 20 0 10 5 18 11 18 6 0 8 -8
4 -20 -6 -18 -1 -19 49 -19 41 1 56 5 56 15 0 8 -4 14 -10 14 -5 0 -10 5 -10
10 0 6 6 9 13 8 6 -2 11 5 9 14 -2 12 2 16 12 12 10 -4 13 -16 10 -40 l-4 -35
62 2 c35 1 66 7 70 13 5 8 8 7 8 -1 0 -8 13 -13 31 -13 19 0 28 4 24 11 -4 6
-14 8 -22 5 -8 -3 -11 -2 -8 3 7 12 -9 22 -47 28 -25 4 -30 2 -25 -11 4 -10 1
-16 -8 -16 -8 0 -15 9 -15 19 0 11 -7 26 -15 35 -19 19 -19 30 0 23 20 -8 28
8 11 22 -17 14 -46 4 -46 -16 0 -13 -3 -13 -16 -2 -14 11 -18 10 -30 -6 -8
-10 -14 -22 -14 -27 0 -4 -7 -8 -16 -8 -8 0 -12 -5 -9 -10 3 -6 2 -10 -4 -10
-17 0 -22 18 -8 27 18 10 32 53 18 53 -6 0 -11 -6 -11 -14 0 -8 -11 -17 -25
-20 -14 -4 -23 -11 -20 -16 3 -6 -1 -10 -10 -10 -9 0 -13 5 -9 11 4 7 1 10 -7
7 -8 -3 -13 -11 -11 -18 1 -6 -5 -10 -15 -8 -13 2 -17 11 -15 30 2 14 -2 29
-7 33 -7 4 -11 -4 -11 -19 0 -23 -9 -31 -33 -27 -4 1 -17 -4 -29 -10 -18 -9
-20 -9 -15 4 8 21 -15 27 -30 8 -10 -13 -12 -10 -13 21 0 25 -4 37 -12 35 -7
-1 -12 4 -11 10 2 7 -4 13 -13 13 -12 0 -15 6 -11 22 5 19 2 23 -18 24 -14 1
-25 -2 -25 -7 0 -5 5 -9 10 -9 6 0 10 -9 10 -20 0 -11 7 -20 15 -20 8 0 15 -7
15 -15 0 -8 6 -14 12 -12 7 1 14 -8 16 -20 2 -16 -2 -23 -12 -23 -9 0 -16 -5
-16 -11 0 -5 4 -8 9 -5 5 3 12 -1 15 -10 3 -9 13 -14 21 -10 8 3 17 0 21 -7 4
-7 4 -9 0 -5 -5 4 -18 3 -31 -2 -17 -7 -25 -5 -29 6 -3 8 -13 14 -21 14 -9 0
-14 4 -11 8 2 4 1 14 -4 22 -7 12 -12 12 -21 3 -9 -9 -9 -16 1 -28 24 -29 3
-25 -23 5 -30 33 -48 110 -26 110 10 0 10 3 1 12 -16 16 -15 28 3 28 8 0 15 5
15 11 0 6 -7 9 -15 5 -8 -3 -15 -1 -15 4 0 6 -4 10 -10 10 -5 0 -9 -5 -7 -11
1 -7 -13 -16 -30 -21 -38 -10 -41 -18 -12 -36 18 -12 21 -11 26 7 3 12 9 21
14 21 12 0 11 -57 -1 -65 -6 -4 -8 -10 -5 -16 3 -5 3 -26 -1 -46 -4 -21 -9
-31 -12 -23 -3 8 -11 23 -20 33 -14 15 -13 17 2 17 13 0 16 5 11 20 -4 13 -2
20 6 20 7 0 9 3 6 6 -4 4 -14 1 -23 -7 -9 -7 -22 -14 -30 -15 -16 -3 -19 22
-4 31 15 9 12 25 -5 25 -9 0 -12 6 -9 15 4 9 0 15 -7 15 -11 0 -11 3 1 10 12
8 10 10 -8 10 -13 0 -40 -15 -60 -35 -35 -33 -36 -35 -13 -35 16 0 22 4 17 15
-3 8 -1 15 5 15 6 0 9 -10 7 -22 -2 -18 -9 -22 -28 -20 -22 2 -23 1 -7 -9 14
-8 15 -14 7 -24 -8 -10 -7 -16 7 -24 16 -9 16 -10 -4 -8 -14 1 -23 8 -23 18 0
25 -11 49 -22 49 -5 0 -7 -10 -3 -22 6 -22 6 -22 -10 -4 -10 13 -12 23 -5 30
13 13 13 46 0 46 -5 0 -12 -11 -16 -25 -9 -36 -26 -31 -22 7 4 43 -19 49 -25
6 -4 -32 -4 -32 -5 6 -2 38 -1 38 28 32 22 -4 29 -2 24 6 -5 8 -2 9 9 5 12 -5
17 -1 17 12 0 11 6 21 12 23 9 3 8 9 -4 21 -19 19 -33 23 -22 6 11 -19 -17
-27 -45 -13 -23 12 -26 12 -34 -8 -7 -20 -8 -20 -21 -3 -12 17 -13 17 -19 1
-4 -10 -11 -14 -17 -11 -5 3 -10 0 -11 -7 0 -7 -5 -2 -10 11 l-9 24 -26 -24
-26 -24 6 23 c6 18 4 22 -14 22 -11 0 -23 -7 -26 -15 -8 -21 -21 -19 -27 5 -3
11 -2 20 2 20 4 0 8 14 9 31 2 25 -1 30 -13 25 -13 -5 -19 4 -17 25 1 10 -36
3 -53 -11 -20 -16 -77 -18 -83 -2 -2 7 -11 12 -19 12 -12 0 -13 -3 -4 -14 9
-10 8 -16 -3 -26 -9 -6 -20 -9 -26 -5 -6 4 -18 1 -26 -6 -8 -6 -18 -8 -22 -4
-4 4 -1 10 6 12 17 6 15 23 -3 23 -8 0 -15 -5 -15 -12 0 -9 -3 -9 -12 0 -9 9
-14 7 -24 -6 -12 -16 -13 -15 -14 6 0 12 -4 22 -10 22 -5 0 -10 -7 -10 -15 0
-21 -10 -19 -37 6 -18 18 -25 20 -38 9 -8 -7 -15 -24 -15 -39 0 -20 -2 -23
-10 -11 -8 13 -11 11 -16 -7 -4 -13 -13 -23 -21 -23 -9 0 -12 6 -8 19 4 12 0
21 -11 25 -14 5 -15 9 -4 19 10 9 13 9 17 0 7 -20 23 -15 23 7 0 11 -6 20 -14
20 -8 0 -22 7 -31 16 -12 13 -19 14 -28 5 -8 -8 -8 -11 1 -11 7 0 12 -4 12 -8
0 -5 -14 -8 -30 -7 -25 1 -30 -2 -30 -21 0 -13 -5 -26 -11 -29 -6 -4 -8 -13
-5 -21 3 -8 -1 -14 -9 -14 -12 0 -12 5 -3 25 9 19 9 28 0 37 -17 17 -15 33 3
18 12 -10 15 -10 15 4 0 9 5 16 10 16 6 0 10 9 10 20 0 23 -10 26 -28 8 -9 -9
-12 -8 -12 4 0 9 10 20 23 24 12 3 30 15 40 25 17 18 17 19 -3 19 -11 0 -23
-7 -26 -15 -4 -8 -14 -15 -23 -15 -12 0 -13 2 -3 9 10 6 9 10 -7 14 -14 3 -19
10 -15 21 10 25 -20 19 -44 -9 -22 -25 -42 -33 -42 -16 0 6 5 13 10 16 15 9
12 35 -3 35 -8 0 -23 -10 -35 -22 -20 -22 -22 -26 -22 -48 0 -5 -7 -10 -15
-10 -18 0 -19 5 -3 30 9 13 9 27 3 46 -12 32 -36 45 -28 16 3 -14 -1 -22 -15
-26 -11 -4 -23 -13 -26 -21 -3 -8 -10 -15 -16 -15 -16 0 -12 30 5 36 15 6 22
54 8 54 -5 0 -21 -7 -36 -15 -25 -13 -27 -13 -25 2 2 9 -3 18 -11 21 -10 3
-12 -2 -7 -21z"/>
</g>
</svg>
